<?xml version="1.0" encoding="UTF-8"?>
<svg xmlns="http://www.w3.org/2000/svg" xmlns:xlink="http://www.w3.org/1999/xlink" viewBox="0 0 120 120" width="120px" height="120px">
<g id="surface24860632">
<path style=" stroke:none;fill-rule:nonzero;fill:rgb(80.000001%,80.000001%,80.000001%);fill-opacity:1;" d="M 60 60.601562 C 59.667969 60.601562 59.398438 60.332031 59.398438 60 C 59.398438 59.667969 59.667969 59.398438 60 59.398438 C 60.332031 59.398438 60.601562 59.667969 60.601562 60 C 60.601562 60.332031 60.332031 60.601562 60 60.601562 Z M 60 60.601562 "/>
<path style=" stroke:none;fill-rule:nonzero;fill:rgb(0%,0%,0%);fill-opacity:1;" d="M 88.777344 38.976562 C 88.167969 38.992188 87.59375 39.246094 87.171875 39.679688 L 51.5 75.355469 L 36.820312 60.675781 C 36.234375 60.066406 35.367188 59.820312 34.550781 60.03125 C 33.730469 60.246094 33.09375 60.882812 32.878906 61.703125 C 32.667969 62.519531 32.914062 63.386719 33.523438 63.972656 L 49.851562 80.300781 C 50.761719 81.210938 52.238281 81.210938 53.148438 80.300781 L 90.46875 42.980469 C 91.160156 42.308594 91.367188 41.285156 90.992188 40.398438 C 90.617188 39.511719 89.738281 38.945312 88.777344 38.976562 Z M 88.777344 38.976562 "/>
</g>
</svg>
