<svg width="800" height="800" xmlns="http://www.w3.org/2000/svg">
 <g>
  <title>Layer 1</title>
  <g transform="rotate(-180 400,400) " stroke="null" stroke-width="0" id="svg_5">
   <path stroke="null" d="m437.37335,598.98643c-112.64387,0 -113.51766,-4.69096 -127.46104,-15.2363c-7.39929,-5.59929 -21.36125,-9.45658 -72.35682,-12.79128a13.24931,13.30143 0 0 1 -9.58064,-4.54165c-1.08448,-1.32516 -26.56677,-38.6289 -26.56677,-98.39202c0,-58.8859 18.23794,-85.7314 19.01876,-86.97568a12.39411,12.44288 0 0 1 10.535,-5.84193c41.8735,0 99.91512,-53.65989 138.94417,-147.33606c6.74859,-16.17574 8.14293,-26.85795 32.93115,-26.85795a48.08915,48.27835 0 0 1 37.70908,23.13752c16.0008,26.55932 7.88266,83.61611 0.35323,114.11359c25.56286,-0.20531 71.83627,-0.55993 93.8544,-0.55993c30.63204,0 50.89642,18.33458 51.50993,45.14275a72.72244,73.00856 0 0 1 -3.50753,25.98694a45.93257,46.11329 0 0 1 15.82108,30.04332c0.47098,16.91609 -10.56598,29.8069 -17.61203,37.19797a51.12571,51.32685 0 0 1 4.53624,19.24913c-0.77464,19.18691 -15.52982,31.55512 -24.72625,38.00676a71.69993,71.98202 0 0 1 -0.31605,22.80779c-6.67422,30.56592 -51.29303,42.84703 -123.08591,42.84703zm-193.24277,-53.26794c44.42049,3.68931 68.16761,8.71001 80.69186,18.15415c9.69219,7.32886 8.1987,10.23426 112.55092,10.23426c31.83428,0 94.08369,-1.33761 98.84923,-23.26817c1.90249,-8.77222 -7.31253,-17.42002 -7.34351,-17.46357a12.56763,12.61708 0 0 1 6.42634,-16.24417c0.09915,-0.04977 24.8378,-8.95265 25.40792,-22.83267a19.44016,19.51664 0 0 0 -5.84382,-14.43373a12.6358,12.68551 0 0 1 3.18528,-17.17117c0.06197,-0.04977 16.11234,-9.80498 15.70953,-23.11264c-0.30366,-10.57644 -14.17267,-17.9924 -14.59406,-18.24125a12.48706,12.5362 0 0 1 -3.7864,-18.44033a41.52027,41.68362 0 0 0 6.07931,-19.48554c-0.45858,-20.19478 -22.08631,-20.82315 -26.72171,-20.82315c-31.26415,0 -111.547,0.32351 -111.547,0.32351a12.26397,12.31223 0 0 1 -10.40485,-5.51219a13.08818,13.13968 0 0 1 -1.13406,-11.7523c12.10285,-35.01424 18.87003,-89.93086 7.64097,-108.69472c-3.30303,-5.53708 -4.06527,-11.06172 -16.45938,-11.06172c-1.71659,0 -5.80664,1.35627 -10.07022,11.57187c-41.43351,99.47455 -103.29252,157.01039 -153.95964,162.20529a160.00797,160.63749 0 0 0 -12.58622,68.3487a164.88505,165.53376 0 0 0 17.90949,77.69952l0.00002,0.00002z" id="svg_4"/>
  </g>
 </g>

</svg>