<?xml version="1.0" encoding="utf-8"?>
<svg version="1.1" style="shape-rendering:geometricPrecision;text-rendering:geometricPrecision;image-rendering:optimizeQuality;" viewBox="0 0 308 307.807" x="0px" y="0px" fill-rule="evenodd" clip-rule="evenodd" xmlns="http://www.w3.org/2000/svg">
  <defs>
    <style type="text/css">
   
    .fil1 {fill:black}
    .fil0 {fill:black;fill-rule:nonzero}
   
  </style>
  </defs>
  <g>
    <path class="fil0" d="M139 93c47,-210 255,1 0,0zm19 -15c181,-3 38,-140 0,0z"/>
    <path class="fil1" d="M0 79l308 0 0 76 -308 0 0 -76zm17 17l274 0 0 42 -274 0 0 -42z"/>
    <path class="fil1" d="M27 139l254 0 0 165 -254 0 0 -165zm145 17l0 130 91 0 0 -130 -91 0zm-36 130l0 -130 -91 0 0 130 91 0z"/>
    <path class="fil0" d="M161 93c-47,-210 -254,1 0,0zm-18 -15c-182,-3 -38,-140 0,0z"/>
  </g>
  <text x="0" y="319" fill="#000000" font-size="5px" font-weight="bold" font-family="'Helvetica Neue', Helvetica, Arial-Unicode, Arial, Sans-serif" style="white-space: pre;">Created by sandiindra</text>
  <text x="0" y="324" fill="#000000" font-size="5px" font-weight="bold" font-family="'Helvetica Neue', Helvetica, Arial-Unicode, Arial, Sans-serif" style="white-space: pre;">from the Noun Project</text>
</svg>